<svg width="1671" height="352" viewBox="0 0 1671 352" fill="none" xmlns="http://www.w3.org/2000/svg">
<path d="M1576.05 351.436C1548.63 351.436 1527.17 345.229 1511.65 332.817C1496.14 320.404 1486.7 302.948 1483.34 280.45H1538.81C1540.62 286.139 1544.11 290.277 1549.28 292.863C1554.71 295.707 1562.21 297.13 1571.78 297.13C1586.26 297.13 1597.12 294.156 1604.36 288.208C1611.86 282.519 1615.61 273.339 1615.61 260.667V238.945C1610.44 247.478 1602.94 254.331 1593.11 259.503C1583.29 264.675 1571.39 267.261 1557.43 267.261C1542.17 267.261 1528.2 263.512 1515.53 256.012C1502.86 248.254 1492.78 236.747 1485.28 221.489C1477.78 206.232 1474.03 187.742 1474.03 166.019C1474.03 144.297 1477.91 126.195 1485.66 111.713C1493.42 96.973 1503.64 86.1118 1516.31 79.1296C1529.24 72.1474 1543.46 68.6562 1558.98 68.6562C1572.42 68.6562 1584.58 72.2767 1595.44 79.5175C1606.56 86.4997 1614.06 94.9042 1617.94 104.731V73.3111H1670.31V257.176C1670.31 289.76 1661.64 313.551 1644.32 328.55C1626.99 343.807 1604.23 351.436 1576.05 351.436ZM1571.78 211.404C1583.67 211.404 1593.11 210.24 1600.1 207.913C1607.08 205.327 1612.25 201.06 1615.61 195.112V142.357C1612.25 136.41 1606.95 132.013 1599.71 129.169C1592.47 126.324 1583.16 124.902 1571.78 124.902C1557.3 124.902 1546.31 128.652 1538.81 136.151C1531.31 143.392 1527.56 154.124 1527.56 168.347C1527.56 182.311 1531.18 193.043 1538.42 200.542C1545.92 207.783 1557.04 211.404 1571.78 211.404Z" fill="#0056D3"/>
<path d="M1359.76 273.469C1339.33 273.469 1321.49 269.073 1306.23 260.28C1291.23 251.488 1279.72 239.334 1271.7 223.818C1263.69 208.302 1259.68 190.588 1259.68 170.675C1259.68 150.763 1263.69 133.178 1271.7 117.921C1279.72 102.405 1291.23 90.2506 1306.23 81.4582C1321.49 72.6657 1339.33 68.2695 1359.76 68.2695C1380.19 68.2695 1397.9 72.6657 1412.9 81.4582C1428.16 90.2506 1439.79 102.405 1447.81 117.921C1455.83 133.178 1459.84 150.763 1459.84 170.675C1459.84 190.588 1455.83 208.302 1447.81 223.818C1439.79 239.334 1428.16 251.488 1412.9 260.28C1397.9 269.073 1380.19 273.469 1359.76 273.469ZM1359.76 214.12C1373.72 214.12 1384.84 210.37 1393.12 202.871C1401.39 195.372 1405.53 184.64 1405.53 170.675C1405.53 156.969 1401.39 146.367 1393.12 138.867C1384.84 131.368 1373.72 127.618 1359.76 127.618C1345.79 127.618 1334.67 131.368 1326.4 138.867C1318.12 146.367 1313.99 156.969 1313.99 170.675C1313.99 184.64 1318.12 195.372 1326.4 202.871C1334.67 210.37 1345.79 214.12 1359.76 214.12Z" fill="#0056D3"/>
<path d="M1128.93 273.08C1113.15 273.08 1098.67 269.33 1085.48 261.831C1072.55 254.331 1062.21 243.082 1054.45 228.083C1046.95 212.826 1043.2 194.336 1043.2 172.613C1043.2 150.891 1047.08 132.272 1054.84 116.756C1062.59 100.981 1072.94 89.0854 1085.87 81.0688C1098.8 72.7935 1113.15 68.6559 1128.93 68.6559C1143.41 68.6559 1155.69 72.0177 1165.78 78.7414C1176.12 85.2064 1183.36 93.223 1187.5 102.791V4.65234H1242.19V268.425H1189.44V237.781C1184.01 249.159 1176.25 257.951 1166.16 264.158C1156.08 270.106 1143.67 273.08 1128.93 273.08ZM1142.89 213.731C1154.79 213.731 1164.35 212.438 1171.59 209.852C1178.84 207.266 1184.14 202.87 1187.5 196.663V146.236C1184.14 140.03 1178.71 135.504 1171.21 132.66C1163.97 129.556 1154.53 128.005 1142.89 128.005C1128.15 128.005 1116.9 131.496 1109.14 138.478C1101.38 145.46 1097.51 156.063 1097.51 170.286C1097.51 184.509 1101.38 195.37 1109.14 202.87C1117.16 210.11 1128.41 213.731 1142.89 213.731Z" fill="#0056D3"/>
<path d="M908.91 73.3118H961.277V114.817C966.707 101.629 975.112 91.0259 986.49 83.0093C997.869 74.9927 1011.96 70.9844 1028.77 70.9844H1030.32V136.152C1023.34 134.859 1016.62 134.212 1010.15 134.212C1000.58 134.212 991.921 135.764 984.163 138.867C976.405 141.712 969.552 146.366 963.604 152.831V268.426H908.91V73.3118Z" fill="#0056D3"/>
<path d="M791.632 273.469C773.53 273.469 757.238 269.331 742.757 261.056C728.534 252.781 717.284 240.885 709.009 225.369C700.993 209.853 696.984 191.881 696.984 171.451C696.984 151.022 701.122 133.049 709.397 117.533C717.672 101.758 729.051 89.6041 743.532 81.0703C758.273 72.5364 774.823 68.2695 793.184 68.2695C811.544 68.2695 827.836 72.2778 842.059 80.2945C856.541 88.3111 867.79 100.077 875.807 115.593C883.823 130.851 887.832 149.082 887.832 170.287C887.573 175.201 887.314 180.244 887.056 185.416H750.903C752.971 197.053 757.626 205.845 764.867 211.793C772.366 217.741 781.805 220.715 793.184 220.715C804.045 220.715 812.967 219.034 819.949 215.672C826.931 212.051 831.844 207.138 834.689 200.932H883.953C880.074 222.913 870.117 240.497 854.084 253.686C838.31 266.875 817.492 273.469 791.632 273.469ZM834.689 151.668C832.62 141.324 827.836 133.566 820.337 128.394C813.096 123.222 804.045 120.636 793.184 120.636C782.84 120.636 774.047 123.222 766.807 128.394C759.566 133.308 754.523 141.066 751.678 151.668H834.689Z" fill="#0056D3"/>
<path d="M418.938 73.3125H478.286L510.094 177.27L545.781 73.3125H579.141L614.827 177.27L646.635 73.3125H697.062L635.774 268.427H593.105L558.97 166.409L524.446 268.427H481.777L418.938 73.3125Z" fill="#0056D3"/>
<path d="M321.989 273.469C301.559 273.469 283.716 269.073 268.458 260.28C253.459 251.488 241.952 239.334 233.935 223.818C225.918 208.302 221.91 190.588 221.91 170.675C221.91 150.763 225.918 133.178 233.935 117.921C241.952 102.405 253.459 90.2506 268.458 81.4582C283.716 72.6657 301.559 68.2695 321.989 68.2695C342.418 68.2695 360.132 72.6657 375.131 81.4582C390.388 90.2506 402.025 102.405 410.042 117.921C418.059 133.178 422.067 150.763 422.067 170.675C422.067 190.588 418.059 208.302 410.042 223.818C402.025 239.334 390.388 251.488 375.131 260.28C360.132 269.073 342.418 273.469 321.989 273.469ZM321.989 214.12C335.953 214.12 347.073 210.37 355.348 202.871C363.623 195.372 367.761 184.64 367.761 170.675C367.761 156.969 363.623 146.367 355.348 138.867C347.073 131.368 335.953 127.618 321.989 127.618C308.024 127.618 296.904 131.368 288.629 138.867C280.354 146.367 276.216 156.969 276.216 170.675C276.216 184.64 280.354 195.372 288.629 202.871C296.904 210.37 308.024 214.12 321.989 214.12Z" fill="#0056D3"/>
<path d="M27.153 125.292H0V73.3132H27.153V68.6584C27.153 44.0914 33.1009 26.5065 44.9965 15.9039C56.8921 5.30131 73.5718 0 95.0357 0C106.414 0 116.37 1.293 124.904 3.879V52.7545C117.146 51.4615 110.681 50.815 105.509 50.815C97.2338 50.815 91.1567 52.4959 87.2776 55.8577C83.6572 58.9609 81.847 64.7794 81.847 73.3132V75.6406L79.5196 73.3132H115.982V125.292H81.847V268.427H27.153V125.292ZM147.79 4.65482H202.484V268.427H147.79V4.65482Z" fill="#0056D3"/>
</svg>
