<svg width="135" height="46" viewBox="0 0 135 46" fill="none" xmlns="http://www.w3.org/2000/svg">
<path d="M121.412 14.0644V9.13346C121.412 8.29296 121.188 8.12485 120.124 8.12485H117.49C116.369 8.12485 115.417 7.17228 115.417 6.05162V3.53011C115.417 2.40944 116.369 1.40084 117.49 1.40084H118.274C124.438 1.40084 125.223 0 126.904 0C128.641 0 129.817 1.28877 129.817 2.96977V37.1502C129.817 37.8226 129.985 38.1028 130.602 38.1028H132.451C133.572 38.1028 134.58 39.1114 134.58 40.232V42.7535C134.58 43.8742 133.572 44.8828 132.451 44.8828C126.904 44.8828 125.279 45.4432 124.326 45.4432C122.757 45.4432 121.749 44.5466 121.468 43.1458C119.451 44.7708 116.706 45.7233 114.296 45.7233C106.003 45.7233 100.344 39.0553 100.344 28.7452C100.344 19.3316 105.947 11.767 114.296 11.767C116.762 11.767 119.395 12.5515 121.412 14.0644ZM115.641 18.7712C111.999 18.7712 109.645 21.685 109.645 28.7452C109.645 35.8054 111.999 38.6631 115.641 38.6631C118.779 38.6631 121.693 35.4692 121.693 28.7452C121.693 22.0212 118.779 18.7712 115.641 18.7712Z" fill="black"/>
<path d="M87.8735 11.7671C94.6536 11.7671 96.8949 16.4739 96.8949 22.5816V37.1503C96.8949 37.8227 97.063 38.1028 97.6234 38.1028H99.4164C100.537 38.1028 101.546 39.1114 101.546 40.2321V42.7536C101.546 43.8743 100.537 44.8829 99.4164 44.8829H86.0244C85.0719 44.8829 84.2314 44.1544 84.0072 43.2579C83.7271 44.1544 82.8866 44.8829 81.934 44.8829H68.598C67.4774 44.8829 66.4688 43.8743 66.4688 42.7536V40.2321C66.4688 39.1114 67.4774 38.1028 68.598 38.1028H70.3911C70.9514 38.1028 71.1195 37.8227 71.1195 37.1503V20.3402C71.1195 19.6118 70.9514 19.3316 70.3911 19.3316H68.598C67.4774 19.3316 66.4688 18.379 66.4688 17.2584V14.7369C66.4688 13.6162 67.4774 12.6076 68.598 12.6076C74.2574 12.6076 75.6022 11.7671 76.5548 11.7671C78.2358 11.7671 79.4685 13.0559 79.4685 14.7369V15.4653C81.7099 13.28 84.6236 11.7671 87.8735 11.7671ZM86.0244 38.1028H87.8735C88.4339 38.1028 88.602 37.8227 88.602 37.1503V24.2626C88.602 19.8919 87.3132 19.3316 85.8003 19.3316C83.2788 19.3316 79.4685 22.6376 79.4685 30.7064V37.1503C79.4685 37.8227 79.6366 38.1028 80.1409 38.1028H81.934C82.8866 38.1028 83.7271 38.8313 84.0072 39.7278C84.2314 38.8313 85.0719 38.1028 86.0244 38.1028Z" fill="black"/>
<path d="M54.838 44.8829H45.7605C45.3123 44.8829 44.92 44.7148 44.5838 44.4907C44.2476 44.7148 43.8554 44.8829 43.4632 44.8829H34.4418C33.3211 44.8829 32.3125 43.8743 32.3125 42.7536V40.2321C32.3125 39.1114 33.3211 38.1028 34.4418 38.1028H35.5064V19.3316H34.4418C33.3211 19.3316 32.3125 18.379 32.3125 17.2584V14.7369C32.3125 13.6162 33.3211 12.6076 34.4418 12.6076C37.8598 12.6076 38.4762 11.7671 39.821 11.7671C41.446 11.7671 42.1184 12.9438 42.3425 13.8403C43.5192 12.6076 44.9761 11.7671 46.8252 11.7671C49.5708 11.7671 51.3079 13.1679 52.4285 15.4093C53.7733 13.3921 55.6224 11.7671 58.1439 11.7671C63.299 11.7671 65.1481 16.3618 65.1481 22.5816V38.1028H66.1567C67.2774 38.1028 68.286 39.1114 68.286 40.2321V42.7536C68.286 43.8743 67.2774 44.8829 66.1567 44.8829H57.0793C56.6871 44.8829 56.2388 44.7708 55.9586 44.5467C55.6224 44.7708 55.2302 44.8829 54.838 44.8829ZM45.7605 38.1028H46.8252V24.2626C46.8252 23.31 46.6571 19.3316 45.7605 19.3316C44.5278 19.3316 42.4546 23.7022 42.4546 30.7064V38.1028H43.4632C43.8554 38.1028 44.3037 38.2709 44.6399 38.4951C44.9761 38.2709 45.3123 38.1028 45.7605 38.1028ZM57.0793 38.1028H58.1439V24.2626C58.1439 23.31 57.9758 19.3316 57.0793 19.3316C55.8466 19.3316 53.8294 23.7022 53.8294 30.7064V38.1028H54.838C55.2302 38.1028 55.6224 38.2709 55.9586 38.4951C56.2948 38.2709 56.631 38.1028 57.0793 38.1028Z" fill="black"/>
<path d="M20.7324 18.7152C20.2841 18.4911 19.4436 18.2109 18.0988 18.2109C13.8403 18.2109 9.74983 21.3488 9.74983 28.4651C9.74983 35.3572 12.9998 38.9433 19.3316 38.9433C22.4134 38.9433 24.8228 37.7106 26.6159 35.5813C27.3443 34.6848 28.6891 34.4607 29.5857 35.1331L31.0986 36.3098C32.2193 37.2063 32.1072 38.327 31.5469 39.1675C28.5771 43.6501 22.6375 45.7234 17.4824 45.7234C8.29296 45.7234 0 40.2321 0 28.7452C0 19.4437 7.11625 11.7671 17.8186 11.7671C24.5427 11.7671 31.3227 15.0731 31.3227 21.4609C31.3227 24.1505 29.5296 27.7366 25.2151 27.7366C22.5255 27.7366 19.4436 26.1677 19.4436 22.5816C19.4436 21.0126 20.116 19.6678 20.7324 18.7152Z" fill="black"/>
</svg>
